<svg width="69" height="69" viewBox="0 0 69 69" fill="none" xmlns="http://www.w3.org/2000/svg">
<path fill-rule="evenodd" clip-rule="evenodd" d="M34.5 69C53.5538 69 69 53.5538 69 34.5C69 15.4462 53.5538 0 34.5 0C15.4462 0 0 15.4462 0 34.5C0 53.5538 15.4462 69 34.5 69Z" fill="#5454D4" fill-opacity="0.1"/>
<path d="M32 34.3333C31.12 34.7733 30.3867 35.4266 29.84 36.24C29.5333 36.7066 29.5333 37.2933 29.84 37.76C30.3867 38.5733 31.12 39.2266 32 39.6666" stroke="#5454D4" stroke-width="2" stroke-linecap="round" stroke-linejoin="round"/>
<path d="M40.28 34.3333C41.16 34.7733 41.8933 35.4266 42.44 36.24C42.7466 36.7066 42.7466 37.2933 42.44 37.76C41.8933 38.5733 41.16 39.2266 40.28 39.6666" stroke="#5454D4" stroke-width="2" stroke-linecap="round" stroke-linejoin="round"/>
<path d="M32 46.3334H40C46.6667 46.3334 49.3334 43.6667 49.3334 37V29C49.3334 22.3334 46.6667 19.6667 40 19.6667H32C25.3334 19.6667 22.6667 22.3334 22.6667 29V37C22.6667 43.6667 25.3334 46.3334 32 46.3334Z" stroke="#5454D4" stroke-width="2" stroke-linecap="round" stroke-linejoin="round"/>
<path d="M22.9733 27.68L48.6 27.6667" stroke="#5454D4" stroke-width="2" stroke-linecap="round" stroke-linejoin="round"/>
</svg>
