<svg width="69" height="69" viewBox="0 0 69 69" fill="none" xmlns="http://www.w3.org/2000/svg">
<path fill-rule="evenodd" clip-rule="evenodd" d="M34.5 69C53.5538 69 69 53.5538 69 34.5C69 15.4462 53.5538 0 34.5 0C15.4462 0 0 15.4462 0 34.5C0 53.5538 15.4462 69 34.5 69Z" fill="#F04037" fill-opacity="0.1"/>
<path d="M37.3467 20.8933L45.2133 24.3867C47.48 25.3867 47.48 27.04 45.2133 28.04L37.3467 31.5333C36.4533 31.9333 34.9867 31.9333 34.0933 31.5333L26.2267 28.04C23.96 27.04 23.96 25.3867 26.2267 24.3867L34.0933 20.8933C34.9867 20.4933 36.4533 20.4933 37.3467 20.8933Z" stroke="#F04037" stroke-width="2" stroke-linecap="round" stroke-linejoin="round"/>
<path d="M24 31.6667C24 32.7867 24.84 34.08 25.8667 34.5334L34.92 38.56C35.6133 38.8667 36.4 38.8667 37.08 38.56L46.1333 34.5334C47.16 34.08 48 32.7867 48 31.6667" stroke="#F04037" stroke-width="2" stroke-linecap="round" stroke-linejoin="round"/>
<path d="M24 38.3333C24 39.5733 24.7333 40.6933 25.8667 41.2L34.92 45.2266C35.6133 45.5333 36.4 45.5333 37.08 45.2266L46.1333 41.2C47.2667 40.6933 48 39.5733 48 38.3333" stroke="#F04037" stroke-width="2" stroke-linecap="round" stroke-linejoin="round"/>
</svg>
