<svg width="69" height="69" viewBox="0 0 69 69" fill="none" xmlns="http://www.w3.org/2000/svg">
<path fill-rule="evenodd" clip-rule="evenodd" d="M34.5 69C53.5538 69 69 53.5538 69 34.5C69 15.4462 53.5538 0 34.5 0C15.4462 0 0 15.4462 0 34.5C0 53.5538 15.4462 69 34.5 69Z" fill="#FEDC5A" fill-opacity="0.1"/>
<path d="M43.2 43.6666H28.8C26.8 43.6666 26 42.8133 26 40.6933V39.3066C26 37.1866 26.8 36.3333 28.8 36.3333H43.2C45.2 36.3333 46 37.1866 46 39.3066V40.6933C46 42.8133 45.2 43.6666 43.2 43.6666Z" stroke="#FEDC5A" stroke-width="2" stroke-linecap="round" stroke-linejoin="round"/>
<path d="M40.5334 32.3333H31.4667C29.4667 32.3333 28.6667 31.48 28.6667 29.36V27.9733C28.6667 25.8533 29.4667 25 31.4667 25H40.5334C42.5334 25 43.3334 25.8533 43.3334 27.9733V29.36C43.3334 31.48 42.5334 32.3333 40.5334 32.3333Z" stroke="#FEDC5A" stroke-width="2" stroke-linecap="round" stroke-linejoin="round"/>
<path d="M36 47.3334V44.1334" stroke="#FEDC5A" stroke-width="2" stroke-linecap="round" stroke-linejoin="round"/>
<path d="M36 35.3334V32.6667" stroke="#FEDC5A" stroke-width="2" stroke-linecap="round" stroke-linejoin="round"/>
<path d="M36 20.6667V24.2534" stroke="#292D32" stroke-width="2" stroke-linecap="round" stroke-linejoin="round"/>
</svg>
